<mxfile host="app.diagrams.net" modified="2021-10-19T09:01:45.747Z" agent="5.0 (Windows NT 10.0; Win64; x64) AppleWebKit/537.36 (KHTML, like Gecko) Chrome/94.0.4606.81 Safari/537.36 Edg/94.0.992.50" etag="J-P3Y57M-00I9dP9bLVw" version="15.5.5" type="github">
  <diagram id="C5RBs43oDa-KdzZeNtuy" name="Page-1">
    <mxGraphModel dx="1422" dy="804" grid="1" gridSize="10" guides="1" tooltips="1" connect="1" arrows="1" fold="1" page="1" pageScale="1" pageWidth="827" pageHeight="1169" math="0" shadow="0">
      <root>
        <mxCell id="WIyWlLk6GJQsqaUBKTNV-0" />
        <mxCell id="WIyWlLk6GJQsqaUBKTNV-1" parent="WIyWlLk6GJQsqaUBKTNV-0" />
        <mxCell id="SUhtx1BIKT0PeIiV_Kec-120" value="" style="group" vertex="1" connectable="0" parent="WIyWlLk6GJQsqaUBKTNV-1">
          <mxGeometry width="548" height="378" as="geometry" />
        </mxCell>
        <mxCell id="zkfFHV4jXpPFQw0GAbJ--0" value="Person" style="swimlane;fontStyle=2;align=center;verticalAlign=top;childLayout=stackLayout;horizontal=1;startSize=26;horizontalStack=0;resizeParent=1;resizeLast=0;collapsible=1;marginBottom=0;rounded=0;shadow=0;strokeWidth=1;" parent="SUhtx1BIKT0PeIiV_Kec-120" vertex="1">
          <mxGeometry x="100" width="160" height="138" as="geometry">
            <mxRectangle x="230" y="140" width="160" height="26" as="alternateBounds" />
          </mxGeometry>
        </mxCell>
        <mxCell id="zkfFHV4jXpPFQw0GAbJ--1" value="Name" style="text;align=left;verticalAlign=top;spacingLeft=4;spacingRight=4;overflow=hidden;rotatable=0;points=[[0,0.5],[1,0.5]];portConstraint=eastwest;" parent="zkfFHV4jXpPFQw0GAbJ--0" vertex="1">
          <mxGeometry y="26" width="160" height="26" as="geometry" />
        </mxCell>
        <mxCell id="zkfFHV4jXpPFQw0GAbJ--2" value="Phone Number" style="text;align=left;verticalAlign=top;spacingLeft=4;spacingRight=4;overflow=hidden;rotatable=0;points=[[0,0.5],[1,0.5]];portConstraint=eastwest;rounded=0;shadow=0;html=0;" parent="zkfFHV4jXpPFQw0GAbJ--0" vertex="1">
          <mxGeometry y="52" width="160" height="26" as="geometry" />
        </mxCell>
        <mxCell id="zkfFHV4jXpPFQw0GAbJ--3" value="Email Address" style="text;align=left;verticalAlign=top;spacingLeft=4;spacingRight=4;overflow=hidden;rotatable=0;points=[[0,0.5],[1,0.5]];portConstraint=eastwest;rounded=0;shadow=0;html=0;" parent="zkfFHV4jXpPFQw0GAbJ--0" vertex="1">
          <mxGeometry y="78" width="160" height="26" as="geometry" />
        </mxCell>
        <mxCell id="zkfFHV4jXpPFQw0GAbJ--4" value="" style="line;html=1;strokeWidth=1;align=left;verticalAlign=middle;spacingTop=-1;spacingLeft=3;spacingRight=3;rotatable=0;labelPosition=right;points=[];portConstraint=eastwest;" parent="zkfFHV4jXpPFQw0GAbJ--0" vertex="1">
          <mxGeometry y="104" width="160" height="8" as="geometry" />
        </mxCell>
        <mxCell id="zkfFHV4jXpPFQw0GAbJ--5" value="Purchase Parking Pass" style="text;align=left;verticalAlign=top;spacingLeft=4;spacingRight=4;overflow=hidden;rotatable=0;points=[[0,0.5],[1,0.5]];portConstraint=eastwest;" parent="zkfFHV4jXpPFQw0GAbJ--0" vertex="1">
          <mxGeometry y="112" width="160" height="26" as="geometry" />
        </mxCell>
        <mxCell id="zkfFHV4jXpPFQw0GAbJ--6" value="Student" style="swimlane;fontStyle=0;align=center;verticalAlign=top;childLayout=stackLayout;horizontal=1;startSize=26;horizontalStack=0;resizeParent=1;resizeLast=0;collapsible=1;marginBottom=0;rounded=0;shadow=0;strokeWidth=1;" parent="SUhtx1BIKT0PeIiV_Kec-120" vertex="1">
          <mxGeometry y="240" width="160" height="138" as="geometry">
            <mxRectangle x="130" y="380" width="160" height="26" as="alternateBounds" />
          </mxGeometry>
        </mxCell>
        <mxCell id="zkfFHV4jXpPFQw0GAbJ--7" value="Student Number" style="text;align=left;verticalAlign=top;spacingLeft=4;spacingRight=4;overflow=hidden;rotatable=0;points=[[0,0.5],[1,0.5]];portConstraint=eastwest;" parent="zkfFHV4jXpPFQw0GAbJ--6" vertex="1">
          <mxGeometry y="26" width="160" height="26" as="geometry" />
        </mxCell>
        <mxCell id="zkfFHV4jXpPFQw0GAbJ--8" value="Average Mark" style="text;align=left;verticalAlign=top;spacingLeft=4;spacingRight=4;overflow=hidden;rotatable=0;points=[[0,0.5],[1,0.5]];portConstraint=eastwest;rounded=0;shadow=0;html=0;" parent="zkfFHV4jXpPFQw0GAbJ--6" vertex="1">
          <mxGeometry y="52" width="160" height="26" as="geometry" />
        </mxCell>
        <mxCell id="zkfFHV4jXpPFQw0GAbJ--9" value="" style="line;html=1;strokeWidth=1;align=left;verticalAlign=middle;spacingTop=-1;spacingLeft=3;spacingRight=3;rotatable=0;labelPosition=right;points=[];portConstraint=eastwest;" parent="zkfFHV4jXpPFQw0GAbJ--6" vertex="1">
          <mxGeometry y="78" width="160" height="8" as="geometry" />
        </mxCell>
        <mxCell id="zkfFHV4jXpPFQw0GAbJ--10" value="Is Eligibale To Enroll" style="text;align=left;verticalAlign=top;spacingLeft=4;spacingRight=4;overflow=hidden;rotatable=0;points=[[0,0.5],[1,0.5]];portConstraint=eastwest;fontStyle=4" parent="zkfFHV4jXpPFQw0GAbJ--6" vertex="1">
          <mxGeometry y="86" width="160" height="26" as="geometry" />
        </mxCell>
        <mxCell id="zkfFHV4jXpPFQw0GAbJ--11" value="Get Seminars Taken" style="text;align=left;verticalAlign=top;spacingLeft=4;spacingRight=4;overflow=hidden;rotatable=0;points=[[0,0.5],[1,0.5]];portConstraint=eastwest;" parent="zkfFHV4jXpPFQw0GAbJ--6" vertex="1">
          <mxGeometry y="112" width="160" height="26" as="geometry" />
        </mxCell>
        <mxCell id="zkfFHV4jXpPFQw0GAbJ--12" value="" style="endArrow=block;endSize=10;endFill=0;shadow=0;strokeWidth=1;rounded=0;edgeStyle=elbowEdgeStyle;elbow=vertical;" parent="SUhtx1BIKT0PeIiV_Kec-120" source="zkfFHV4jXpPFQw0GAbJ--6" target="zkfFHV4jXpPFQw0GAbJ--0" edge="1">
          <mxGeometry width="160" relative="1" as="geometry">
            <mxPoint x="80" y="83" as="sourcePoint" />
            <mxPoint x="80" y="83" as="targetPoint" />
          </mxGeometry>
        </mxCell>
        <mxCell id="zkfFHV4jXpPFQw0GAbJ--13" value="Professor" style="swimlane;fontStyle=0;align=center;verticalAlign=top;childLayout=stackLayout;horizontal=1;startSize=26;horizontalStack=0;resizeParent=1;resizeLast=0;collapsible=1;marginBottom=0;rounded=0;shadow=0;strokeWidth=1;" parent="SUhtx1BIKT0PeIiV_Kec-120" vertex="1">
          <mxGeometry x="210" y="240" width="160" height="70" as="geometry">
            <mxRectangle x="340" y="380" width="170" height="26" as="alternateBounds" />
          </mxGeometry>
        </mxCell>
        <mxCell id="zkfFHV4jXpPFQw0GAbJ--14" value="Salary" style="text;align=left;verticalAlign=top;spacingLeft=4;spacingRight=4;overflow=hidden;rotatable=0;points=[[0,0.5],[1,0.5]];portConstraint=eastwest;" parent="zkfFHV4jXpPFQw0GAbJ--13" vertex="1">
          <mxGeometry y="26" width="160" height="26" as="geometry" />
        </mxCell>
        <mxCell id="zkfFHV4jXpPFQw0GAbJ--15" value="" style="line;html=1;strokeWidth=1;align=left;verticalAlign=middle;spacingTop=-1;spacingLeft=3;spacingRight=3;rotatable=0;labelPosition=right;points=[];portConstraint=eastwest;" parent="zkfFHV4jXpPFQw0GAbJ--13" vertex="1">
          <mxGeometry y="52" width="160" height="8" as="geometry" />
        </mxCell>
        <mxCell id="zkfFHV4jXpPFQw0GAbJ--16" value="" style="endArrow=block;endSize=10;endFill=0;shadow=0;strokeWidth=1;rounded=0;edgeStyle=elbowEdgeStyle;elbow=vertical;" parent="SUhtx1BIKT0PeIiV_Kec-120" source="zkfFHV4jXpPFQw0GAbJ--13" target="zkfFHV4jXpPFQw0GAbJ--0" edge="1">
          <mxGeometry width="160" relative="1" as="geometry">
            <mxPoint x="90" y="253" as="sourcePoint" />
            <mxPoint x="190" y="151" as="targetPoint" />
          </mxGeometry>
        </mxCell>
        <mxCell id="zkfFHV4jXpPFQw0GAbJ--17" value="Address" style="swimlane;fontStyle=0;align=center;verticalAlign=top;childLayout=stackLayout;horizontal=1;startSize=26;horizontalStack=0;resizeParent=1;resizeLast=0;collapsible=1;marginBottom=0;rounded=0;shadow=0;strokeWidth=1;" parent="SUhtx1BIKT0PeIiV_Kec-120" vertex="1">
          <mxGeometry x="388" width="160" height="216" as="geometry">
            <mxRectangle x="550" y="140" width="160" height="26" as="alternateBounds" />
          </mxGeometry>
        </mxCell>
        <mxCell id="zkfFHV4jXpPFQw0GAbJ--18" value="Street" style="text;align=left;verticalAlign=top;spacingLeft=4;spacingRight=4;overflow=hidden;rotatable=0;points=[[0,0.5],[1,0.5]];portConstraint=eastwest;" parent="zkfFHV4jXpPFQw0GAbJ--17" vertex="1">
          <mxGeometry y="26" width="160" height="26" as="geometry" />
        </mxCell>
        <mxCell id="zkfFHV4jXpPFQw0GAbJ--19" value="City" style="text;align=left;verticalAlign=top;spacingLeft=4;spacingRight=4;overflow=hidden;rotatable=0;points=[[0,0.5],[1,0.5]];portConstraint=eastwest;rounded=0;shadow=0;html=0;" parent="zkfFHV4jXpPFQw0GAbJ--17" vertex="1">
          <mxGeometry y="52" width="160" height="26" as="geometry" />
        </mxCell>
        <mxCell id="zkfFHV4jXpPFQw0GAbJ--20" value="State" style="text;align=left;verticalAlign=top;spacingLeft=4;spacingRight=4;overflow=hidden;rotatable=0;points=[[0,0.5],[1,0.5]];portConstraint=eastwest;rounded=0;shadow=0;html=0;" parent="zkfFHV4jXpPFQw0GAbJ--17" vertex="1">
          <mxGeometry y="78" width="160" height="26" as="geometry" />
        </mxCell>
        <mxCell id="zkfFHV4jXpPFQw0GAbJ--21" value="Postal Code" style="text;align=left;verticalAlign=top;spacingLeft=4;spacingRight=4;overflow=hidden;rotatable=0;points=[[0,0.5],[1,0.5]];portConstraint=eastwest;rounded=0;shadow=0;html=0;" parent="zkfFHV4jXpPFQw0GAbJ--17" vertex="1">
          <mxGeometry y="104" width="160" height="26" as="geometry" />
        </mxCell>
        <mxCell id="zkfFHV4jXpPFQw0GAbJ--22" value="Country" style="text;align=left;verticalAlign=top;spacingLeft=4;spacingRight=4;overflow=hidden;rotatable=0;points=[[0,0.5],[1,0.5]];portConstraint=eastwest;rounded=0;shadow=0;html=0;" parent="zkfFHV4jXpPFQw0GAbJ--17" vertex="1">
          <mxGeometry y="130" width="160" height="26" as="geometry" />
        </mxCell>
        <mxCell id="zkfFHV4jXpPFQw0GAbJ--23" value="" style="line;html=1;strokeWidth=1;align=left;verticalAlign=middle;spacingTop=-1;spacingLeft=3;spacingRight=3;rotatable=0;labelPosition=right;points=[];portConstraint=eastwest;" parent="zkfFHV4jXpPFQw0GAbJ--17" vertex="1">
          <mxGeometry y="156" width="160" height="8" as="geometry" />
        </mxCell>
        <mxCell id="zkfFHV4jXpPFQw0GAbJ--24" value="Validate" style="text;align=left;verticalAlign=top;spacingLeft=4;spacingRight=4;overflow=hidden;rotatable=0;points=[[0,0.5],[1,0.5]];portConstraint=eastwest;" parent="zkfFHV4jXpPFQw0GAbJ--17" vertex="1">
          <mxGeometry y="164" width="160" height="26" as="geometry" />
        </mxCell>
        <mxCell id="zkfFHV4jXpPFQw0GAbJ--25" value="Output As Label" style="text;align=left;verticalAlign=top;spacingLeft=4;spacingRight=4;overflow=hidden;rotatable=0;points=[[0,0.5],[1,0.5]];portConstraint=eastwest;" parent="zkfFHV4jXpPFQw0GAbJ--17" vertex="1">
          <mxGeometry y="190" width="160" height="26" as="geometry" />
        </mxCell>
        <mxCell id="zkfFHV4jXpPFQw0GAbJ--26" value="" style="endArrow=open;shadow=0;strokeWidth=1;rounded=0;endFill=1;edgeStyle=elbowEdgeStyle;elbow=vertical;" parent="SUhtx1BIKT0PeIiV_Kec-120" source="zkfFHV4jXpPFQw0GAbJ--0" target="zkfFHV4jXpPFQw0GAbJ--17" edge="1">
          <mxGeometry x="0.5" y="41" relative="1" as="geometry">
            <mxPoint x="260" y="72" as="sourcePoint" />
            <mxPoint x="420" y="72" as="targetPoint" />
            <mxPoint x="-40" y="32" as="offset" />
          </mxGeometry>
        </mxCell>
        <mxCell id="zkfFHV4jXpPFQw0GAbJ--27" value="0..1" style="resizable=0;align=left;verticalAlign=bottom;labelBackgroundColor=none;fontSize=12;" parent="zkfFHV4jXpPFQw0GAbJ--26" connectable="0" vertex="1">
          <mxGeometry x="-1" relative="1" as="geometry">
            <mxPoint y="4" as="offset" />
          </mxGeometry>
        </mxCell>
        <mxCell id="zkfFHV4jXpPFQw0GAbJ--28" value="1" style="resizable=0;align=right;verticalAlign=bottom;labelBackgroundColor=none;fontSize=12;" parent="zkfFHV4jXpPFQw0GAbJ--26" connectable="0" vertex="1">
          <mxGeometry x="1" relative="1" as="geometry">
            <mxPoint x="-7" y="4" as="offset" />
          </mxGeometry>
        </mxCell>
        <mxCell id="zkfFHV4jXpPFQw0GAbJ--29" value="lives at" style="text;html=1;resizable=0;points=[];;align=center;verticalAlign=middle;labelBackgroundColor=none;rounded=0;shadow=0;strokeWidth=1;fontSize=12;" parent="zkfFHV4jXpPFQw0GAbJ--26" vertex="1" connectable="0">
          <mxGeometry x="0.5" y="49" relative="1" as="geometry">
            <mxPoint x="-38" y="40" as="offset" />
          </mxGeometry>
        </mxCell>
        <mxCell id="SUhtx1BIKT0PeIiV_Kec-121" value="" style="group" vertex="1" connectable="0" parent="WIyWlLk6GJQsqaUBKTNV-1">
          <mxGeometry x="4" y="440" width="1457" height="1314" as="geometry" />
        </mxCell>
        <mxCell id="SUhtx1BIKT0PeIiV_Kec-60" value="frame" style="shape=umlFrame;whiteSpace=wrap;html=1;rounded=0;shadow=0;comic=0;labelBackgroundColor=none;strokeWidth=1;fontFamily=Verdana;fontSize=10;align=center;" vertex="1" parent="SUhtx1BIKT0PeIiV_Kec-121">
          <mxGeometry width="820" height="1060" as="geometry" />
        </mxCell>
        <mxCell id="SUhtx1BIKT0PeIiV_Kec-63" value="Classname" style="swimlane;html=1;fontStyle=0;childLayout=stackLayout;horizontal=1;startSize=26;fillColor=none;horizontalStack=0;resizeParent=1;resizeLast=0;collapsible=1;marginBottom=0;swimlaneFillColor=#ffffff;rounded=0;shadow=0;comic=0;labelBackgroundColor=none;strokeWidth=1;fontFamily=Verdana;fontSize=10;align=center;" vertex="1" parent="SUhtx1BIKT0PeIiV_Kec-121">
          <mxGeometry x="630" y="608" width="160" height="186" as="geometry" />
        </mxCell>
        <mxCell id="SUhtx1BIKT0PeIiV_Kec-64" value="+ field: type" style="text;html=1;strokeColor=none;fillColor=none;align=left;verticalAlign=top;spacingLeft=4;spacingRight=4;whiteSpace=wrap;overflow=hidden;rotatable=0;points=[[0,0.5],[1,0.5]];portConstraint=eastwest;" vertex="1" parent="SUhtx1BIKT0PeIiV_Kec-63">
          <mxGeometry y="26" width="160" height="26" as="geometry" />
        </mxCell>
        <mxCell id="SUhtx1BIKT0PeIiV_Kec-65" value="+ field: type" style="text;html=1;strokeColor=none;fillColor=none;align=left;verticalAlign=top;spacingLeft=4;spacingRight=4;whiteSpace=wrap;overflow=hidden;rotatable=0;points=[[0,0.5],[1,0.5]];portConstraint=eastwest;" vertex="1" parent="SUhtx1BIKT0PeIiV_Kec-63">
          <mxGeometry y="52" width="160" height="26" as="geometry" />
        </mxCell>
        <mxCell id="SUhtx1BIKT0PeIiV_Kec-66" value="+ field: type" style="text;html=1;strokeColor=none;fillColor=none;align=left;verticalAlign=top;spacingLeft=4;spacingRight=4;whiteSpace=wrap;overflow=hidden;rotatable=0;points=[[0,0.5],[1,0.5]];portConstraint=eastwest;" vertex="1" parent="SUhtx1BIKT0PeIiV_Kec-63">
          <mxGeometry y="78" width="160" height="26" as="geometry" />
        </mxCell>
        <mxCell id="SUhtx1BIKT0PeIiV_Kec-67" value="+ field: type" style="text;html=1;strokeColor=none;fillColor=none;align=left;verticalAlign=top;spacingLeft=4;spacingRight=4;whiteSpace=wrap;overflow=hidden;rotatable=0;points=[[0,0.5],[1,0.5]];portConstraint=eastwest;" vertex="1" parent="SUhtx1BIKT0PeIiV_Kec-63">
          <mxGeometry y="104" width="160" height="26" as="geometry" />
        </mxCell>
        <mxCell id="SUhtx1BIKT0PeIiV_Kec-68" value="+ field: type" style="text;html=1;strokeColor=none;fillColor=none;align=left;verticalAlign=top;spacingLeft=4;spacingRight=4;whiteSpace=wrap;overflow=hidden;rotatable=0;points=[[0,0.5],[1,0.5]];portConstraint=eastwest;" vertex="1" parent="SUhtx1BIKT0PeIiV_Kec-63">
          <mxGeometry y="130" width="160" height="26" as="geometry" />
        </mxCell>
        <mxCell id="SUhtx1BIKT0PeIiV_Kec-69" value="+ field: type" style="text;html=1;strokeColor=none;fillColor=none;align=left;verticalAlign=top;spacingLeft=4;spacingRight=4;whiteSpace=wrap;overflow=hidden;rotatable=0;points=[[0,0.5],[1,0.5]];portConstraint=eastwest;" vertex="1" parent="SUhtx1BIKT0PeIiV_Kec-63">
          <mxGeometry y="156" width="160" height="26" as="geometry" />
        </mxCell>
        <mxCell id="SUhtx1BIKT0PeIiV_Kec-70" value="Classname" style="swimlane;html=1;fontStyle=0;childLayout=stackLayout;horizontal=1;startSize=26;fillColor=none;horizontalStack=0;resizeParent=1;resizeLast=0;collapsible=1;marginBottom=0;swimlaneFillColor=#ffffff;rounded=0;shadow=0;comic=0;labelBackgroundColor=none;strokeWidth=1;fontFamily=Verdana;fontSize=10;align=center;" vertex="1" parent="SUhtx1BIKT0PeIiV_Kec-121">
          <mxGeometry x="330" y="22" width="160" height="110" as="geometry" />
        </mxCell>
        <mxCell id="SUhtx1BIKT0PeIiV_Kec-71" value="+ field: type" style="text;html=1;strokeColor=none;fillColor=none;align=left;verticalAlign=top;spacingLeft=4;spacingRight=4;whiteSpace=wrap;overflow=hidden;rotatable=0;points=[[0,0.5],[1,0.5]];portConstraint=eastwest;" vertex="1" parent="SUhtx1BIKT0PeIiV_Kec-70">
          <mxGeometry y="26" width="160" height="26" as="geometry" />
        </mxCell>
        <mxCell id="SUhtx1BIKT0PeIiV_Kec-72" value="+ field: type" style="text;html=1;strokeColor=none;fillColor=none;align=left;verticalAlign=top;spacingLeft=4;spacingRight=4;whiteSpace=wrap;overflow=hidden;rotatable=0;points=[[0,0.5],[1,0.5]];portConstraint=eastwest;" vertex="1" parent="SUhtx1BIKT0PeIiV_Kec-70">
          <mxGeometry y="52" width="160" height="26" as="geometry" />
        </mxCell>
        <mxCell id="SUhtx1BIKT0PeIiV_Kec-73" value="+ field: type" style="text;html=1;strokeColor=none;fillColor=none;align=left;verticalAlign=top;spacingLeft=4;spacingRight=4;whiteSpace=wrap;overflow=hidden;rotatable=0;points=[[0,0.5],[1,0.5]];portConstraint=eastwest;" vertex="1" parent="SUhtx1BIKT0PeIiV_Kec-70">
          <mxGeometry y="78" width="160" height="26" as="geometry" />
        </mxCell>
        <mxCell id="SUhtx1BIKT0PeIiV_Kec-74" value="Classname" style="swimlane;html=1;fontStyle=0;childLayout=stackLayout;horizontal=1;startSize=26;fillColor=none;horizontalStack=0;resizeParent=1;resizeLast=0;collapsible=1;marginBottom=0;swimlaneFillColor=#ffffff;rounded=0;shadow=0;comic=0;labelBackgroundColor=none;strokeWidth=1;fontFamily=Verdana;fontSize=10;align=center;" vertex="1" parent="SUhtx1BIKT0PeIiV_Kec-121">
          <mxGeometry x="560" y="67" width="160" height="110" as="geometry" />
        </mxCell>
        <mxCell id="SUhtx1BIKT0PeIiV_Kec-75" value="+ field: type" style="text;html=1;strokeColor=none;fillColor=none;align=left;verticalAlign=top;spacingLeft=4;spacingRight=4;whiteSpace=wrap;overflow=hidden;rotatable=0;points=[[0,0.5],[1,0.5]];portConstraint=eastwest;" vertex="1" parent="SUhtx1BIKT0PeIiV_Kec-74">
          <mxGeometry y="26" width="160" height="26" as="geometry" />
        </mxCell>
        <mxCell id="SUhtx1BIKT0PeIiV_Kec-76" value="+ field: type" style="text;html=1;strokeColor=none;fillColor=none;align=left;verticalAlign=top;spacingLeft=4;spacingRight=4;whiteSpace=wrap;overflow=hidden;rotatable=0;points=[[0,0.5],[1,0.5]];portConstraint=eastwest;" vertex="1" parent="SUhtx1BIKT0PeIiV_Kec-74">
          <mxGeometry y="52" width="160" height="26" as="geometry" />
        </mxCell>
        <mxCell id="SUhtx1BIKT0PeIiV_Kec-77" value="+ field: type" style="text;html=1;strokeColor=none;fillColor=none;align=left;verticalAlign=top;spacingLeft=4;spacingRight=4;whiteSpace=wrap;overflow=hidden;rotatable=0;points=[[0,0.5],[1,0.5]];portConstraint=eastwest;" vertex="1" parent="SUhtx1BIKT0PeIiV_Kec-74">
          <mxGeometry y="78" width="160" height="26" as="geometry" />
        </mxCell>
        <mxCell id="SUhtx1BIKT0PeIiV_Kec-78" value="Classname" style="swimlane;html=1;fontStyle=0;childLayout=stackLayout;horizontal=1;startSize=26;fillColor=none;horizontalStack=0;resizeParent=1;resizeLast=0;collapsible=1;marginBottom=0;swimlaneFillColor=#ffffff;rounded=0;shadow=0;comic=0;labelBackgroundColor=none;strokeWidth=1;fontFamily=Verdana;fontSize=10;align=center;" vertex="1" parent="SUhtx1BIKT0PeIiV_Kec-121">
          <mxGeometry x="630" y="958" width="160" height="83" as="geometry" />
        </mxCell>
        <mxCell id="SUhtx1BIKT0PeIiV_Kec-79" value="+ field: type" style="text;html=1;strokeColor=none;fillColor=none;align=left;verticalAlign=top;spacingLeft=4;spacingRight=4;whiteSpace=wrap;overflow=hidden;rotatable=0;points=[[0,0.5],[1,0.5]];portConstraint=eastwest;" vertex="1" parent="SUhtx1BIKT0PeIiV_Kec-78">
          <mxGeometry y="26" width="160" height="26" as="geometry" />
        </mxCell>
        <mxCell id="SUhtx1BIKT0PeIiV_Kec-80" value="+ field: type" style="text;html=1;strokeColor=none;fillColor=none;align=left;verticalAlign=top;spacingLeft=4;spacingRight=4;whiteSpace=wrap;overflow=hidden;rotatable=0;points=[[0,0.5],[1,0.5]];portConstraint=eastwest;" vertex="1" parent="SUhtx1BIKT0PeIiV_Kec-78">
          <mxGeometry y="52" width="160" height="26" as="geometry" />
        </mxCell>
        <mxCell id="SUhtx1BIKT0PeIiV_Kec-81" style="edgeStyle=orthogonalEdgeStyle;rounded=0;html=1;dashed=1;labelBackgroundColor=none;startFill=0;endArrow=open;endFill=0;endSize=10;fontFamily=Verdana;fontSize=10;" edge="1" parent="SUhtx1BIKT0PeIiV_Kec-121" source="SUhtx1BIKT0PeIiV_Kec-82" target="SUhtx1BIKT0PeIiV_Kec-78">
          <mxGeometry relative="1" as="geometry" />
        </mxCell>
        <mxCell id="SUhtx1BIKT0PeIiV_Kec-82" value="Classname" style="swimlane;html=1;fontStyle=0;childLayout=stackLayout;horizontal=1;startSize=26;fillColor=none;horizontalStack=0;resizeParent=1;resizeLast=0;collapsible=1;marginBottom=0;swimlaneFillColor=#ffffff;rounded=0;shadow=0;comic=0;labelBackgroundColor=none;strokeWidth=1;fontFamily=Verdana;fontSize=10;align=center;" vertex="1" parent="SUhtx1BIKT0PeIiV_Kec-121">
          <mxGeometry x="630" y="818" width="160" height="110" as="geometry" />
        </mxCell>
        <mxCell id="SUhtx1BIKT0PeIiV_Kec-83" value="+ field: type" style="text;html=1;strokeColor=none;fillColor=none;align=left;verticalAlign=top;spacingLeft=4;spacingRight=4;whiteSpace=wrap;overflow=hidden;rotatable=0;points=[[0,0.5],[1,0.5]];portConstraint=eastwest;" vertex="1" parent="SUhtx1BIKT0PeIiV_Kec-82">
          <mxGeometry y="26" width="160" height="26" as="geometry" />
        </mxCell>
        <mxCell id="SUhtx1BIKT0PeIiV_Kec-84" value="+ field: type" style="text;html=1;strokeColor=none;fillColor=none;align=left;verticalAlign=top;spacingLeft=4;spacingRight=4;whiteSpace=wrap;overflow=hidden;rotatable=0;points=[[0,0.5],[1,0.5]];portConstraint=eastwest;" vertex="1" parent="SUhtx1BIKT0PeIiV_Kec-82">
          <mxGeometry y="52" width="160" height="26" as="geometry" />
        </mxCell>
        <mxCell id="SUhtx1BIKT0PeIiV_Kec-85" value="+ field: type" style="text;html=1;strokeColor=none;fillColor=none;align=left;verticalAlign=top;spacingLeft=4;spacingRight=4;whiteSpace=wrap;overflow=hidden;rotatable=0;points=[[0,0.5],[1,0.5]];portConstraint=eastwest;" vertex="1" parent="SUhtx1BIKT0PeIiV_Kec-82">
          <mxGeometry y="78" width="160" height="26" as="geometry" />
        </mxCell>
        <mxCell id="SUhtx1BIKT0PeIiV_Kec-62" style="edgeStyle=orthogonalEdgeStyle;rounded=0;html=1;dashed=1;labelBackgroundColor=none;startFill=0;endArrow=open;endFill=0;endSize=10;fontFamily=Verdana;fontSize=10;" edge="1" parent="SUhtx1BIKT0PeIiV_Kec-121" source="SUhtx1BIKT0PeIiV_Kec-63" target="SUhtx1BIKT0PeIiV_Kec-82">
          <mxGeometry relative="1" as="geometry">
            <Array as="points" />
          </mxGeometry>
        </mxCell>
        <mxCell id="SUhtx1BIKT0PeIiV_Kec-86" style="edgeStyle=orthogonalEdgeStyle;rounded=0;html=1;dashed=1;labelBackgroundColor=none;startFill=0;endArrow=open;endFill=0;endSize=10;fontFamily=Verdana;fontSize=10;" edge="1" parent="SUhtx1BIKT0PeIiV_Kec-121" source="SUhtx1BIKT0PeIiV_Kec-87" target="SUhtx1BIKT0PeIiV_Kec-63">
          <mxGeometry relative="1" as="geometry">
            <Array as="points" />
          </mxGeometry>
        </mxCell>
        <mxCell id="SUhtx1BIKT0PeIiV_Kec-87" value="Classname" style="swimlane;html=1;fontStyle=0;childLayout=stackLayout;horizontal=1;startSize=26;fillColor=none;horizontalStack=0;resizeParent=1;resizeLast=0;collapsible=1;marginBottom=0;swimlaneFillColor=#ffffff;rounded=0;shadow=0;comic=0;labelBackgroundColor=none;strokeWidth=1;fontFamily=Verdana;fontSize=10;align=center;" vertex="1" parent="SUhtx1BIKT0PeIiV_Kec-121">
          <mxGeometry x="630" y="500" width="160" height="83" as="geometry" />
        </mxCell>
        <mxCell id="SUhtx1BIKT0PeIiV_Kec-88" value="+ field: type" style="text;html=1;strokeColor=none;fillColor=none;align=left;verticalAlign=top;spacingLeft=4;spacingRight=4;whiteSpace=wrap;overflow=hidden;rotatable=0;points=[[0,0.5],[1,0.5]];portConstraint=eastwest;" vertex="1" parent="SUhtx1BIKT0PeIiV_Kec-87">
          <mxGeometry y="26" width="160" height="26" as="geometry" />
        </mxCell>
        <mxCell id="SUhtx1BIKT0PeIiV_Kec-89" value="+ field: type" style="text;html=1;strokeColor=none;fillColor=none;align=left;verticalAlign=top;spacingLeft=4;spacingRight=4;whiteSpace=wrap;overflow=hidden;rotatable=0;points=[[0,0.5],[1,0.5]];portConstraint=eastwest;" vertex="1" parent="SUhtx1BIKT0PeIiV_Kec-87">
          <mxGeometry y="52" width="160" height="26" as="geometry" />
        </mxCell>
        <mxCell id="SUhtx1BIKT0PeIiV_Kec-90" value="&amp;laquo;interface&amp;raquo;&lt;br&gt;&lt;b&gt;Name&lt;/b&gt;" style="html=1;rounded=0;shadow=0;comic=0;labelBackgroundColor=none;strokeWidth=1;fontFamily=Verdana;fontSize=10;align=center;" vertex="1" parent="SUhtx1BIKT0PeIiV_Kec-121">
          <mxGeometry x="470" y="984" width="110" height="50" as="geometry" />
        </mxCell>
        <mxCell id="SUhtx1BIKT0PeIiV_Kec-91" style="edgeStyle=orthogonalEdgeStyle;rounded=0;html=1;dashed=1;labelBackgroundColor=none;startFill=0;endArrow=open;endFill=0;endSize=10;fontFamily=Verdana;fontSize=10;" edge="1" parent="SUhtx1BIKT0PeIiV_Kec-121" source="SUhtx1BIKT0PeIiV_Kec-93" target="SUhtx1BIKT0PeIiV_Kec-90">
          <mxGeometry relative="1" as="geometry">
            <Array as="points">
              <mxPoint x="525" y="950" />
              <mxPoint x="525" y="950" />
            </Array>
          </mxGeometry>
        </mxCell>
        <mxCell id="SUhtx1BIKT0PeIiV_Kec-93" value="&lt;p style=&quot;margin:0px;margin-top:4px;text-align:center;&quot;&gt;&lt;i&gt;&amp;lt;&amp;lt;Interface&amp;gt;&amp;gt;&lt;/i&gt;&lt;br/&gt;&lt;b&gt;Interface&lt;/b&gt;&lt;/p&gt;&lt;hr size=&quot;1&quot;/&gt;&lt;p style=&quot;margin:0px;margin-left:4px;&quot;&gt;+ field1: Type&lt;br/&gt;+ field2: Type&lt;/p&gt;&lt;hr size=&quot;1&quot;/&gt;&lt;p style=&quot;margin:0px;margin-left:4px;&quot;&gt;+ method1(Type): Type&lt;br/&gt;+ method2(Type, Type): Type&lt;/p&gt;" style="verticalAlign=top;align=left;overflow=fill;fontSize=12;fontFamily=Helvetica;html=1;rounded=0;shadow=0;comic=0;labelBackgroundColor=none;strokeWidth=1" vertex="1" parent="SUhtx1BIKT0PeIiV_Kec-121">
          <mxGeometry x="395" y="803" width="190" height="140" as="geometry" />
        </mxCell>
        <mxCell id="SUhtx1BIKT0PeIiV_Kec-61" style="edgeStyle=orthogonalEdgeStyle;rounded=0;html=1;dashed=1;labelBackgroundColor=none;startFill=0;endArrow=open;endFill=0;endSize=10;fontFamily=Verdana;fontSize=10;" edge="1" parent="SUhtx1BIKT0PeIiV_Kec-121" source="SUhtx1BIKT0PeIiV_Kec-63" target="SUhtx1BIKT0PeIiV_Kec-93">
          <mxGeometry relative="1" as="geometry">
            <Array as="points">
              <mxPoint x="570" y="701" />
            </Array>
          </mxGeometry>
        </mxCell>
        <mxCell id="SUhtx1BIKT0PeIiV_Kec-94" value="&lt;p style=&quot;margin:0px;margin-top:4px;text-align:center;&quot;&gt;&lt;i&gt;&amp;lt;&amp;lt;Interface&amp;gt;&amp;gt;&lt;/i&gt;&lt;br/&gt;&lt;b&gt;Interface&lt;/b&gt;&lt;/p&gt;&lt;hr size=&quot;1&quot;/&gt;&lt;p style=&quot;margin:0px;margin-left:4px;&quot;&gt;+ field1: Type&lt;br/&gt;+ field2: Type&lt;/p&gt;&lt;hr size=&quot;1&quot;/&gt;&lt;p style=&quot;margin:0px;margin-left:4px;&quot;&gt;+ method1(Type): Type&lt;br/&gt;+ method2(Type, Type): Type&lt;/p&gt;" style="verticalAlign=top;align=left;overflow=fill;fontSize=12;fontFamily=Helvetica;html=1;rounded=0;shadow=0;comic=0;labelBackgroundColor=none;strokeWidth=1" vertex="1" parent="SUhtx1BIKT0PeIiV_Kec-121">
          <mxGeometry x="330" y="552" width="190" height="140" as="geometry" />
        </mxCell>
        <mxCell id="SUhtx1BIKT0PeIiV_Kec-95" style="edgeStyle=orthogonalEdgeStyle;rounded=0;html=1;dashed=1;labelBackgroundColor=none;startFill=0;endArrow=open;endFill=0;endSize=10;fontFamily=Verdana;fontSize=10;" edge="1" parent="SUhtx1BIKT0PeIiV_Kec-121" source="SUhtx1BIKT0PeIiV_Kec-96" target="SUhtx1BIKT0PeIiV_Kec-90">
          <mxGeometry relative="1" as="geometry">
            <Array as="points">
              <mxPoint x="390" y="1009" />
              <mxPoint x="390" y="1009" />
            </Array>
          </mxGeometry>
        </mxCell>
        <mxCell id="SUhtx1BIKT0PeIiV_Kec-96" value="&lt;p style=&quot;margin:0px;margin-top:4px;text-align:center;&quot;&gt;&lt;i&gt;&amp;lt;&amp;lt;Interface&amp;gt;&amp;gt;&lt;/i&gt;&lt;br/&gt;&lt;b&gt;Interface&lt;/b&gt;&lt;/p&gt;&lt;hr size=&quot;1&quot;/&gt;&lt;p style=&quot;margin:0px;margin-left:4px;&quot;&gt;+ field1: Type&lt;br/&gt;+ field2: Type&lt;/p&gt;&lt;hr size=&quot;1&quot;/&gt;&lt;p style=&quot;margin:0px;margin-left:4px;&quot;&gt;+ method1(Type): Type&lt;br/&gt;+ method2(Type, Type): Type&lt;/p&gt;" style="verticalAlign=top;align=left;overflow=fill;fontSize=12;fontFamily=Helvetica;html=1;rounded=0;shadow=0;comic=0;labelBackgroundColor=none;strokeWidth=1" vertex="1" parent="SUhtx1BIKT0PeIiV_Kec-121">
          <mxGeometry x="170" y="888" width="190" height="140" as="geometry" />
        </mxCell>
        <mxCell id="SUhtx1BIKT0PeIiV_Kec-97" value="&lt;p style=&quot;margin:0px;margin-top:4px;text-align:center;&quot;&gt;&lt;i&gt;&amp;lt;&amp;lt;Interface&amp;gt;&amp;gt;&lt;/i&gt;&lt;br/&gt;&lt;b&gt;Interface&lt;/b&gt;&lt;/p&gt;&lt;hr size=&quot;1&quot;/&gt;&lt;p style=&quot;margin:0px;margin-left:4px;&quot;&gt;+ field1: Type&lt;br/&gt;+ field2: Type&lt;/p&gt;&lt;hr size=&quot;1&quot;/&gt;&lt;p style=&quot;margin:0px;margin-left:4px;&quot;&gt;+ method1(Type): Type&lt;br/&gt;+ method2(Type, Type): Type&lt;/p&gt;" style="verticalAlign=top;align=left;overflow=fill;fontSize=12;fontFamily=Helvetica;html=1;rounded=0;shadow=0;comic=0;labelBackgroundColor=none;strokeWidth=1" vertex="1" parent="SUhtx1BIKT0PeIiV_Kec-121">
          <mxGeometry x="170" y="724" width="190" height="140" as="geometry" />
        </mxCell>
        <mxCell id="SUhtx1BIKT0PeIiV_Kec-98" value="&amp;laquo;interface&amp;raquo;&lt;br&gt;&lt;b&gt;Name&lt;/b&gt;" style="html=1;rounded=0;shadow=0;comic=0;labelBackgroundColor=none;strokeWidth=1;fontFamily=Verdana;fontSize=10;align=center;" vertex="1" parent="SUhtx1BIKT0PeIiV_Kec-121">
          <mxGeometry x="360" y="475" width="110" height="50" as="geometry" />
        </mxCell>
        <mxCell id="SUhtx1BIKT0PeIiV_Kec-99" value="&amp;laquo;interface&amp;raquo;&lt;br&gt;&lt;b&gt;Name&lt;/b&gt;" style="html=1;rounded=0;shadow=0;comic=0;labelBackgroundColor=none;strokeWidth=1;fontFamily=Verdana;fontSize=10;align=center;" vertex="1" parent="SUhtx1BIKT0PeIiV_Kec-121">
          <mxGeometry x="360" y="401" width="110" height="50" as="geometry" />
        </mxCell>
        <mxCell id="SUhtx1BIKT0PeIiV_Kec-101" value="&lt;p style=&quot;margin:0px;margin-top:4px;text-align:center;&quot;&gt;&lt;i&gt;&amp;lt;&amp;lt;Interface&amp;gt;&amp;gt;&lt;/i&gt;&lt;br/&gt;&lt;b&gt;Interface&lt;/b&gt;&lt;/p&gt;&lt;hr size=&quot;1&quot;/&gt;&lt;p style=&quot;margin:0px;margin-left:4px;&quot;&gt;+ field1: Type&lt;br/&gt;+ field2: Type&lt;/p&gt;&lt;hr size=&quot;1&quot;/&gt;&lt;p style=&quot;margin:0px;margin-left:4px;&quot;&gt;+ method1(Type): Type&lt;br/&gt;+ method2(Type, Type): Type&lt;/p&gt;" style="verticalAlign=top;align=left;overflow=fill;fontSize=12;fontFamily=Helvetica;html=1;rounded=0;shadow=0;comic=0;labelBackgroundColor=none;strokeWidth=1" vertex="1" parent="SUhtx1BIKT0PeIiV_Kec-121">
          <mxGeometry x="430" y="210" width="190" height="140" as="geometry" />
        </mxCell>
        <mxCell id="SUhtx1BIKT0PeIiV_Kec-92" style="edgeStyle=orthogonalEdgeStyle;rounded=0;html=1;dashed=1;labelBackgroundColor=none;startFill=0;endArrow=open;endFill=0;endSize=10;fontFamily=Verdana;fontSize=10;" edge="1" parent="SUhtx1BIKT0PeIiV_Kec-121" source="SUhtx1BIKT0PeIiV_Kec-93" target="SUhtx1BIKT0PeIiV_Kec-98">
          <mxGeometry relative="1" as="geometry">
            <Array as="points">
              <mxPoint x="530" y="500" />
            </Array>
          </mxGeometry>
        </mxCell>
        <mxCell id="SUhtx1BIKT0PeIiV_Kec-102" value="Text" style="text;html=1;resizable=0;points=[];autosize=1;align=left;verticalAlign=top;spacingTop=-4;fontSize=10;fontFamily=Verdana;fontColor=#000000;" vertex="1" parent="SUhtx1BIKT0PeIiV_Kec-121">
          <mxGeometry x="430" y="434" width="40" height="10" as="geometry" />
        </mxCell>
        <mxCell id="SUhtx1BIKT0PeIiV_Kec-103" value="&amp;laquo;interface&amp;raquo;&lt;br&gt;&lt;b&gt;Name&lt;/b&gt;" style="html=1;rounded=0;shadow=0;comic=0;labelBackgroundColor=none;strokeWidth=1;fontFamily=Verdana;fontSize=10;align=center;" vertex="1" parent="SUhtx1BIKT0PeIiV_Kec-121">
          <mxGeometry x="665" y="255" width="110" height="50" as="geometry" />
        </mxCell>
        <mxCell id="SUhtx1BIKT0PeIiV_Kec-104" style="edgeStyle=orthogonalEdgeStyle;rounded=0;html=1;labelBackgroundColor=none;startFill=0;endArrow=open;endFill=0;endSize=10;fontFamily=Verdana;fontSize=10;dashed=1;" edge="1" parent="SUhtx1BIKT0PeIiV_Kec-121" source="SUhtx1BIKT0PeIiV_Kec-106" target="SUhtx1BIKT0PeIiV_Kec-70">
          <mxGeometry relative="1" as="geometry" />
        </mxCell>
        <mxCell id="SUhtx1BIKT0PeIiV_Kec-105" style="edgeStyle=orthogonalEdgeStyle;rounded=0;html=1;exitX=1;exitY=0.75;dashed=1;labelBackgroundColor=none;startFill=0;endArrow=open;endFill=0;endSize=10;fontFamily=Verdana;fontSize=10;" edge="1" parent="SUhtx1BIKT0PeIiV_Kec-121" source="SUhtx1BIKT0PeIiV_Kec-106" target="SUhtx1BIKT0PeIiV_Kec-74">
          <mxGeometry relative="1" as="geometry">
            <Array as="points">
              <mxPoint x="510" y="172" />
              <mxPoint x="510" y="122" />
            </Array>
          </mxGeometry>
        </mxCell>
        <mxCell id="SUhtx1BIKT0PeIiV_Kec-106" value="&lt;p style=&quot;margin:0px;margin-top:4px;text-align:center;&quot;&gt;&lt;i&gt;&amp;lt;&amp;lt;Interface&amp;gt;&amp;gt;&lt;/i&gt;&lt;br/&gt;&lt;b&gt;Interface&lt;/b&gt;&lt;/p&gt;&lt;hr size=&quot;1&quot;/&gt;&lt;p style=&quot;margin:0px;margin-left:4px;&quot;&gt;+ field1: Type&lt;br/&gt;+ field2: Type&lt;/p&gt;&lt;hr size=&quot;1&quot;/&gt;&lt;p style=&quot;margin:0px;margin-left:4px;&quot;&gt;+ method1(Type): Type&lt;br/&gt;+ method2(Type, Type): Type&lt;/p&gt;" style="verticalAlign=top;align=left;overflow=fill;fontSize=12;fontFamily=Helvetica;html=1;rounded=0;shadow=0;comic=0;labelBackgroundColor=none;strokeWidth=1" vertex="1" parent="SUhtx1BIKT0PeIiV_Kec-121">
          <mxGeometry x="40" y="67" width="190" height="140" as="geometry" />
        </mxCell>
        <mxCell id="SUhtx1BIKT0PeIiV_Kec-107" style="edgeStyle=orthogonalEdgeStyle;rounded=0;html=1;dashed=1;labelBackgroundColor=none;startFill=0;endArrow=open;endFill=0;endSize=10;fontFamily=Verdana;fontSize=10;" edge="1" parent="SUhtx1BIKT0PeIiV_Kec-121" source="SUhtx1BIKT0PeIiV_Kec-111" target="SUhtx1BIKT0PeIiV_Kec-70">
          <mxGeometry relative="1" as="geometry">
            <Array as="points">
              <mxPoint x="300" y="270" />
              <mxPoint x="300" y="100" />
            </Array>
          </mxGeometry>
        </mxCell>
        <mxCell id="SUhtx1BIKT0PeIiV_Kec-108" style="edgeStyle=orthogonalEdgeStyle;rounded=0;html=1;dashed=1;labelBackgroundColor=none;startFill=0;endArrow=open;endFill=0;endSize=10;fontFamily=Verdana;fontSize=10;" edge="1" parent="SUhtx1BIKT0PeIiV_Kec-121" source="SUhtx1BIKT0PeIiV_Kec-111" target="SUhtx1BIKT0PeIiV_Kec-74">
          <mxGeometry relative="1" as="geometry">
            <Array as="points">
              <mxPoint x="330" y="290" />
              <mxPoint x="330" y="190" />
              <mxPoint x="530" y="190" />
              <mxPoint x="530" y="140" />
            </Array>
          </mxGeometry>
        </mxCell>
        <mxCell id="SUhtx1BIKT0PeIiV_Kec-109" style="edgeStyle=orthogonalEdgeStyle;rounded=0;html=1;dashed=1;labelBackgroundColor=none;startFill=0;endArrow=open;endFill=0;endSize=10;fontFamily=Verdana;fontSize=10;" edge="1" parent="SUhtx1BIKT0PeIiV_Kec-121" source="SUhtx1BIKT0PeIiV_Kec-111" target="SUhtx1BIKT0PeIiV_Kec-101">
          <mxGeometry relative="1" as="geometry">
            <Array as="points">
              <mxPoint x="350" y="320" />
              <mxPoint x="350" y="280" />
            </Array>
          </mxGeometry>
        </mxCell>
        <mxCell id="SUhtx1BIKT0PeIiV_Kec-110" style="edgeStyle=orthogonalEdgeStyle;rounded=0;html=1;exitX=1;exitY=0.75;dashed=1;labelBackgroundColor=none;startFill=0;endArrow=open;endFill=0;endSize=10;fontFamily=Verdana;fontSize=10;" edge="1" parent="SUhtx1BIKT0PeIiV_Kec-121" source="SUhtx1BIKT0PeIiV_Kec-111" target="SUhtx1BIKT0PeIiV_Kec-99">
          <mxGeometry relative="1" as="geometry">
            <Array as="points">
              <mxPoint x="300" y="355" />
              <mxPoint x="300" y="420" />
            </Array>
          </mxGeometry>
        </mxCell>
        <mxCell id="SUhtx1BIKT0PeIiV_Kec-111" value="&lt;p style=&quot;margin:0px;margin-top:4px;text-align:center;&quot;&gt;&lt;i&gt;&amp;lt;&amp;lt;Interface&amp;gt;&amp;gt;&lt;/i&gt;&lt;br/&gt;&lt;b&gt;Interface&lt;/b&gt;&lt;/p&gt;&lt;hr size=&quot;1&quot;/&gt;&lt;p style=&quot;margin:0px;margin-left:4px;&quot;&gt;+ field1: Type&lt;br/&gt;+ field2: Type&lt;/p&gt;&lt;hr size=&quot;1&quot;/&gt;&lt;p style=&quot;margin:0px;margin-left:4px;&quot;&gt;+ method1(Type): Type&lt;br/&gt;+ method2(Type, Type): Type&lt;/p&gt;" style="verticalAlign=top;align=left;overflow=fill;fontSize=12;fontFamily=Helvetica;html=1;rounded=0;shadow=0;comic=0;labelBackgroundColor=none;strokeWidth=1" vertex="1" parent="SUhtx1BIKT0PeIiV_Kec-121">
          <mxGeometry x="40" y="250" width="190" height="140" as="geometry" />
        </mxCell>
        <mxCell id="SUhtx1BIKT0PeIiV_Kec-112" style="edgeStyle=orthogonalEdgeStyle;rounded=0;html=1;dashed=1;labelBackgroundColor=none;startFill=0;endArrow=open;endFill=0;endSize=10;fontFamily=Verdana;fontSize=10;" edge="1" parent="SUhtx1BIKT0PeIiV_Kec-121" source="SUhtx1BIKT0PeIiV_Kec-118" target="SUhtx1BIKT0PeIiV_Kec-99">
          <mxGeometry relative="1" as="geometry">
            <Array as="points">
              <mxPoint x="300" y="470" />
              <mxPoint x="300" y="440" />
            </Array>
          </mxGeometry>
        </mxCell>
        <mxCell id="SUhtx1BIKT0PeIiV_Kec-113" style="edgeStyle=orthogonalEdgeStyle;rounded=0;html=1;dashed=1;labelBackgroundColor=none;startFill=0;endArrow=open;endFill=0;endSize=10;fontFamily=Verdana;fontSize=10;" edge="1" parent="SUhtx1BIKT0PeIiV_Kec-121" source="SUhtx1BIKT0PeIiV_Kec-118" target="SUhtx1BIKT0PeIiV_Kec-98">
          <mxGeometry relative="1" as="geometry" />
        </mxCell>
        <mxCell id="SUhtx1BIKT0PeIiV_Kec-114" style="edgeStyle=orthogonalEdgeStyle;rounded=0;html=1;dashed=1;labelBackgroundColor=none;startFill=0;endArrow=open;endFill=0;endSize=10;fontFamily=Verdana;fontSize=10;" edge="1" parent="SUhtx1BIKT0PeIiV_Kec-121" source="SUhtx1BIKT0PeIiV_Kec-118" target="SUhtx1BIKT0PeIiV_Kec-94">
          <mxGeometry relative="1" as="geometry">
            <Array as="points">
              <mxPoint x="280" y="560" />
              <mxPoint x="280" y="622" />
            </Array>
          </mxGeometry>
        </mxCell>
        <mxCell id="SUhtx1BIKT0PeIiV_Kec-115" style="edgeStyle=orthogonalEdgeStyle;rounded=0;html=1;dashed=1;labelBackgroundColor=none;startFill=0;endArrow=open;endFill=0;endSize=10;fontFamily=Verdana;fontSize=10;" edge="1" parent="SUhtx1BIKT0PeIiV_Kec-121" source="SUhtx1BIKT0PeIiV_Kec-118" target="SUhtx1BIKT0PeIiV_Kec-87">
          <mxGeometry relative="1" as="geometry">
            <Array as="points">
              <mxPoint x="330" y="540" />
              <mxPoint x="330" y="540" />
            </Array>
          </mxGeometry>
        </mxCell>
        <mxCell id="SUhtx1BIKT0PeIiV_Kec-116" style="edgeStyle=orthogonalEdgeStyle;rounded=0;html=1;dashed=1;labelBackgroundColor=none;startFill=0;endArrow=open;endFill=0;endSize=10;fontFamily=Verdana;fontSize=10;" edge="1" parent="SUhtx1BIKT0PeIiV_Kec-121" source="SUhtx1BIKT0PeIiV_Kec-118" target="SUhtx1BIKT0PeIiV_Kec-97">
          <mxGeometry relative="1" as="geometry">
            <Array as="points">
              <mxPoint x="150" y="760" />
            </Array>
          </mxGeometry>
        </mxCell>
        <mxCell id="SUhtx1BIKT0PeIiV_Kec-117" style="edgeStyle=orthogonalEdgeStyle;rounded=0;html=1;dashed=1;labelBackgroundColor=none;startFill=0;endArrow=open;endFill=0;endSize=10;fontFamily=Verdana;fontSize=10;" edge="1" parent="SUhtx1BIKT0PeIiV_Kec-121" source="SUhtx1BIKT0PeIiV_Kec-118" target="SUhtx1BIKT0PeIiV_Kec-96">
          <mxGeometry relative="1" as="geometry">
            <Array as="points">
              <mxPoint x="120" y="958" />
            </Array>
          </mxGeometry>
        </mxCell>
        <mxCell id="SUhtx1BIKT0PeIiV_Kec-118" value="&lt;p style=&quot;margin:0px;margin-top:4px;text-align:center;&quot;&gt;&lt;i&gt;&amp;lt;&amp;lt;Interface&amp;gt;&amp;gt;&lt;/i&gt;&lt;br/&gt;&lt;b&gt;Interface&lt;/b&gt;&lt;/p&gt;&lt;hr size=&quot;1&quot;/&gt;&lt;p style=&quot;margin:0px;margin-left:4px;&quot;&gt;+ field1: Type&lt;br/&gt;+ field2: Type&lt;/p&gt;&lt;hr size=&quot;1&quot;/&gt;&lt;p style=&quot;margin:0px;margin-left:4px;&quot;&gt;+ method1(Type): Type&lt;br/&gt;+ method2(Type, Type): Type&lt;/p&gt;" style="verticalAlign=top;align=left;overflow=fill;fontSize=12;fontFamily=Helvetica;html=1;rounded=0;shadow=0;comic=0;labelBackgroundColor=none;strokeWidth=1" vertex="1" parent="SUhtx1BIKT0PeIiV_Kec-121">
          <mxGeometry x="40" y="430" width="190" height="140" as="geometry" />
        </mxCell>
        <mxCell id="SUhtx1BIKT0PeIiV_Kec-100" style="edgeStyle=orthogonalEdgeStyle;rounded=0;html=1;dashed=1;labelBackgroundColor=none;startFill=0;endArrow=open;endFill=0;endSize=10;fontFamily=Verdana;fontSize=10;" edge="1" parent="SUhtx1BIKT0PeIiV_Kec-121" source="SUhtx1BIKT0PeIiV_Kec-101" target="SUhtx1BIKT0PeIiV_Kec-103">
          <mxGeometry relative="1" as="geometry">
            <Array as="points" />
          </mxGeometry>
        </mxCell>
        <mxCell id="SUhtx1BIKT0PeIiV_Kec-119" style="edgeStyle=orthogonalEdgeStyle;rounded=0;html=1;dashed=1;labelBackgroundColor=none;startFill=0;endArrow=open;endFill=0;endSize=10;fontFamily=Verdana;fontSize=10;" edge="1" parent="SUhtx1BIKT0PeIiV_Kec-121" source="SUhtx1BIKT0PeIiV_Kec-87" target="SUhtx1BIKT0PeIiV_Kec-93">
          <mxGeometry relative="1" as="geometry">
            <Array as="points">
              <mxPoint x="550" y="570" />
            </Array>
          </mxGeometry>
        </mxCell>
        <mxCell id="SUhtx1BIKT0PeIiV_Kec-177" value="" style="group" vertex="1" connectable="0" parent="WIyWlLk6GJQsqaUBKTNV-1">
          <mxGeometry x="960" width="1001" height="940" as="geometry" />
        </mxCell>
        <mxCell id="SUhtx1BIKT0PeIiV_Kec-122" value="" style="shape=folder;fontStyle=1;spacingTop=10;tabWidth=194;tabHeight=22;tabPosition=left;html=1;rounded=0;shadow=0;comic=0;labelBackgroundColor=none;strokeWidth=1;fillColor=none;fontFamily=Verdana;fontSize=10;align=center;" vertex="1" parent="SUhtx1BIKT0PeIiV_Kec-177">
          <mxGeometry width="1001" height="940" as="geometry" />
        </mxCell>
        <mxCell id="SUhtx1BIKT0PeIiV_Kec-123" value="" style="group" vertex="1" connectable="0" parent="SUhtx1BIKT0PeIiV_Kec-177">
          <mxGeometry x="139" y="60" width="130" height="70" as="geometry" />
        </mxCell>
        <mxCell id="SUhtx1BIKT0PeIiV_Kec-124" value="package" style="shape=folder;fontStyle=1;spacingTop=10;tabWidth=50;tabHeight=17;tabPosition=left;html=1;rounded=0;shadow=0;comic=0;labelBackgroundColor=none;strokeWidth=1;fontFamily=Verdana;fontSize=10;align=center;" vertex="1" parent="SUhtx1BIKT0PeIiV_Kec-123">
          <mxGeometry width="130" height="70" as="geometry" />
        </mxCell>
        <mxCell id="SUhtx1BIKT0PeIiV_Kec-125" value="" style="triangle;whiteSpace=wrap;html=1;rounded=0;shadow=0;comic=0;labelBackgroundColor=none;strokeWidth=1;fontFamily=Verdana;fontSize=10;align=center;rotation=-90;" vertex="1" parent="SUhtx1BIKT0PeIiV_Kec-123">
          <mxGeometry x="100" y="25" width="15" height="20" as="geometry" />
        </mxCell>
        <mxCell id="SUhtx1BIKT0PeIiV_Kec-126" value="" style="group" vertex="1" connectable="0" parent="SUhtx1BIKT0PeIiV_Kec-177">
          <mxGeometry x="439" y="60" width="130" height="70" as="geometry" />
        </mxCell>
        <mxCell id="SUhtx1BIKT0PeIiV_Kec-127" value="package" style="shape=folder;fontStyle=1;spacingTop=10;tabWidth=50;tabHeight=17;tabPosition=left;html=1;rounded=0;shadow=0;comic=0;labelBackgroundColor=none;strokeWidth=1;fontFamily=Verdana;fontSize=10;align=center;" vertex="1" parent="SUhtx1BIKT0PeIiV_Kec-126">
          <mxGeometry width="130" height="70" as="geometry" />
        </mxCell>
        <mxCell id="SUhtx1BIKT0PeIiV_Kec-128" value="" style="triangle;whiteSpace=wrap;html=1;rounded=0;shadow=0;comic=0;labelBackgroundColor=none;strokeWidth=1;fontFamily=Verdana;fontSize=10;align=center;rotation=-90;" vertex="1" parent="SUhtx1BIKT0PeIiV_Kec-126">
          <mxGeometry x="100" y="25" width="15" height="20" as="geometry" />
        </mxCell>
        <mxCell id="SUhtx1BIKT0PeIiV_Kec-129" value="" style="group" vertex="1" connectable="0" parent="SUhtx1BIKT0PeIiV_Kec-177">
          <mxGeometry x="35" y="180" width="280" height="130" as="geometry" />
        </mxCell>
        <mxCell id="SUhtx1BIKT0PeIiV_Kec-130" value="" style="shape=folder;fontStyle=1;spacingTop=10;tabWidth=123;tabHeight=24;tabPosition=left;html=1;rounded=0;shadow=0;comic=0;labelBackgroundColor=none;strokeWidth=1;fontFamily=Verdana;fontSize=10;align=center;" vertex="1" parent="SUhtx1BIKT0PeIiV_Kec-129">
          <mxGeometry width="280" height="130" as="geometry" />
        </mxCell>
        <mxCell id="SUhtx1BIKT0PeIiV_Kec-131" value="" style="triangle;whiteSpace=wrap;html=1;rounded=0;shadow=0;comic=0;labelBackgroundColor=none;strokeWidth=1;fontFamily=Verdana;fontSize=10;align=center;rotation=-90;" vertex="1" parent="SUhtx1BIKT0PeIiV_Kec-129">
          <mxGeometry x="96" y="2" width="15" height="20" as="geometry" />
        </mxCell>
        <mxCell id="SUhtx1BIKT0PeIiV_Kec-132" value="package" style="shape=folder;fontStyle=1;spacingTop=10;tabWidth=50;tabHeight=17;tabPosition=left;html=1;rounded=0;shadow=0;comic=0;labelBackgroundColor=none;strokeWidth=1;fontFamily=Verdana;fontSize=10;align=center;" vertex="1" parent="SUhtx1BIKT0PeIiV_Kec-129">
          <mxGeometry x="18" y="40" width="112" height="70" as="geometry" />
        </mxCell>
        <mxCell id="SUhtx1BIKT0PeIiV_Kec-133" value="package" style="shape=folder;fontStyle=1;spacingTop=10;tabWidth=50;tabHeight=17;tabPosition=left;html=1;rounded=0;shadow=0;comic=0;labelBackgroundColor=none;strokeWidth=1;fontFamily=Verdana;fontSize=10;align=center;" vertex="1" parent="SUhtx1BIKT0PeIiV_Kec-129">
          <mxGeometry x="148" y="40" width="112" height="70" as="geometry" />
        </mxCell>
        <mxCell id="SUhtx1BIKT0PeIiV_Kec-134" value="" style="group" vertex="1" connectable="0" parent="SUhtx1BIKT0PeIiV_Kec-177">
          <mxGeometry x="359" y="184" width="280" height="130" as="geometry" />
        </mxCell>
        <mxCell id="SUhtx1BIKT0PeIiV_Kec-135" value="" style="shape=folder;fontStyle=1;spacingTop=10;tabWidth=123;tabHeight=24;tabPosition=left;html=1;rounded=0;shadow=0;comic=0;labelBackgroundColor=none;strokeWidth=1;fontFamily=Verdana;fontSize=10;align=center;" vertex="1" parent="SUhtx1BIKT0PeIiV_Kec-134">
          <mxGeometry width="280" height="130" as="geometry" />
        </mxCell>
        <mxCell id="SUhtx1BIKT0PeIiV_Kec-136" value="" style="triangle;whiteSpace=wrap;html=1;rounded=0;shadow=0;comic=0;labelBackgroundColor=none;strokeWidth=1;fontFamily=Verdana;fontSize=10;align=center;rotation=-90;" vertex="1" parent="SUhtx1BIKT0PeIiV_Kec-134">
          <mxGeometry x="96" y="2" width="15" height="20" as="geometry" />
        </mxCell>
        <mxCell id="SUhtx1BIKT0PeIiV_Kec-137" value="package" style="shape=folder;fontStyle=1;spacingTop=10;tabWidth=50;tabHeight=17;tabPosition=left;html=1;rounded=0;shadow=0;comic=0;labelBackgroundColor=none;strokeWidth=1;fontFamily=Verdana;fontSize=10;align=center;" vertex="1" parent="SUhtx1BIKT0PeIiV_Kec-134">
          <mxGeometry x="18" y="40" width="112" height="70" as="geometry" />
        </mxCell>
        <mxCell id="SUhtx1BIKT0PeIiV_Kec-138" value="package" style="shape=folder;fontStyle=1;spacingTop=10;tabWidth=50;tabHeight=17;tabPosition=left;html=1;rounded=0;shadow=0;comic=0;labelBackgroundColor=none;strokeWidth=1;fontFamily=Verdana;fontSize=10;align=center;" vertex="1" parent="SUhtx1BIKT0PeIiV_Kec-134">
          <mxGeometry x="148" y="40" width="112" height="70" as="geometry" />
        </mxCell>
        <mxCell id="SUhtx1BIKT0PeIiV_Kec-139" value="" style="group" vertex="1" connectable="0" parent="SUhtx1BIKT0PeIiV_Kec-177">
          <mxGeometry x="719" y="180" width="230" height="480" as="geometry" />
        </mxCell>
        <mxCell id="SUhtx1BIKT0PeIiV_Kec-140" value="" style="group" vertex="1" connectable="0" parent="SUhtx1BIKT0PeIiV_Kec-139">
          <mxGeometry width="230" height="480" as="geometry" />
        </mxCell>
        <mxCell id="SUhtx1BIKT0PeIiV_Kec-141" value="" style="shape=folder;fontStyle=1;spacingTop=10;tabWidth=123;tabHeight=24;tabPosition=left;html=1;rounded=0;shadow=0;comic=0;labelBackgroundColor=none;strokeWidth=1;fontFamily=Verdana;fontSize=10;align=center;" vertex="1" parent="SUhtx1BIKT0PeIiV_Kec-140">
          <mxGeometry width="230" height="480" as="geometry" />
        </mxCell>
        <mxCell id="SUhtx1BIKT0PeIiV_Kec-142" value="" style="triangle;whiteSpace=wrap;html=1;rounded=0;shadow=0;comic=0;labelBackgroundColor=none;strokeWidth=1;fontFamily=Verdana;fontSize=10;align=center;rotation=-90;" vertex="1" parent="SUhtx1BIKT0PeIiV_Kec-140">
          <mxGeometry x="100" y="2" width="15" height="20" as="geometry" />
        </mxCell>
        <mxCell id="SUhtx1BIKT0PeIiV_Kec-143" value="package" style="shape=folder;fontStyle=1;spacingTop=10;tabWidth=50;tabHeight=17;tabPosition=left;html=1;rounded=0;shadow=0;comic=0;labelBackgroundColor=none;strokeWidth=1;fontFamily=Verdana;fontSize=10;align=center;" vertex="1" parent="SUhtx1BIKT0PeIiV_Kec-140">
          <mxGeometry x="59" y="79" width="112" height="70" as="geometry" />
        </mxCell>
        <mxCell id="SUhtx1BIKT0PeIiV_Kec-144" value="package" style="shape=folder;fontStyle=1;spacingTop=10;tabWidth=50;tabHeight=17;tabPosition=left;html=1;rounded=0;shadow=0;comic=0;labelBackgroundColor=none;strokeWidth=1;fontFamily=Verdana;fontSize=10;align=center;" vertex="1" parent="SUhtx1BIKT0PeIiV_Kec-140">
          <mxGeometry x="59" y="205" width="112" height="70" as="geometry" />
        </mxCell>
        <mxCell id="SUhtx1BIKT0PeIiV_Kec-145" value="package" style="shape=folder;fontStyle=1;spacingTop=10;tabWidth=50;tabHeight=17;tabPosition=left;html=1;rounded=0;shadow=0;comic=0;labelBackgroundColor=none;strokeWidth=1;fontFamily=Verdana;fontSize=10;align=center;" vertex="1" parent="SUhtx1BIKT0PeIiV_Kec-140">
          <mxGeometry x="59" y="340" width="112" height="70" as="geometry" />
        </mxCell>
        <mxCell id="SUhtx1BIKT0PeIiV_Kec-147" style="edgeStyle=elbowEdgeStyle;rounded=0;html=1;dashed=1;labelBackgroundColor=none;startFill=0;endArrow=open;endFill=0;endSize=10;fontFamily=Verdana;fontSize=10;elbow=vertical;" edge="1" parent="SUhtx1BIKT0PeIiV_Kec-177" source="SUhtx1BIKT0PeIiV_Kec-148" target="SUhtx1BIKT0PeIiV_Kec-141">
          <mxGeometry relative="1" as="geometry" />
        </mxCell>
        <mxCell id="SUhtx1BIKT0PeIiV_Kec-148" value="" style="shape=folder;fontStyle=1;spacingTop=10;tabWidth=123;tabHeight=24;tabPosition=left;html=1;rounded=0;shadow=0;comic=0;labelBackgroundColor=none;strokeColor=#000000;strokeWidth=1;fillColor=#ffffff;fontFamily=Verdana;fontSize=10;fontColor=#000000;align=center;" vertex="1" parent="SUhtx1BIKT0PeIiV_Kec-177">
          <mxGeometry x="114" y="360" width="515" height="240" as="geometry" />
        </mxCell>
        <mxCell id="SUhtx1BIKT0PeIiV_Kec-152" value="package" style="shape=folder;fontStyle=1;spacingTop=10;tabWidth=50;tabHeight=17;tabPosition=left;html=1;rounded=0;shadow=0;comic=0;labelBackgroundColor=none;strokeColor=#000000;strokeWidth=1;fillColor=#ffffff;fontFamily=Verdana;fontSize=10;fontColor=#000000;align=center;" vertex="1" parent="SUhtx1BIKT0PeIiV_Kec-177">
          <mxGeometry x="321" y="410" width="112" height="70" as="geometry" />
        </mxCell>
        <mxCell id="SUhtx1BIKT0PeIiV_Kec-153" value="package" style="shape=folder;fontStyle=1;spacingTop=10;tabWidth=50;tabHeight=17;tabPosition=left;html=1;rounded=0;shadow=0;comic=0;labelBackgroundColor=none;strokeColor=#000000;strokeWidth=1;fillColor=#ffffff;fontFamily=Verdana;fontSize=10;fontColor=#000000;align=center;" vertex="1" parent="SUhtx1BIKT0PeIiV_Kec-177">
          <mxGeometry x="157" y="510" width="112" height="70" as="geometry" />
        </mxCell>
        <mxCell id="SUhtx1BIKT0PeIiV_Kec-154" value="package" style="shape=folder;fontStyle=1;spacingTop=10;tabWidth=50;tabHeight=17;tabPosition=left;html=1;rounded=0;shadow=0;comic=0;labelBackgroundColor=none;strokeColor=#000000;strokeWidth=1;fillColor=#ffffff;fontFamily=Verdana;fontSize=10;fontColor=#000000;align=center;" vertex="1" parent="SUhtx1BIKT0PeIiV_Kec-177">
          <mxGeometry x="321" y="510" width="112" height="70" as="geometry" />
        </mxCell>
        <mxCell id="SUhtx1BIKT0PeIiV_Kec-155" value="package" style="shape=folder;fontStyle=1;spacingTop=10;tabWidth=50;tabHeight=17;tabPosition=left;html=1;rounded=0;shadow=0;comic=0;labelBackgroundColor=none;strokeColor=#000000;strokeWidth=1;fillColor=#ffffff;fontFamily=Verdana;fontSize=10;fontColor=#000000;align=center;" vertex="1" parent="SUhtx1BIKT0PeIiV_Kec-177">
          <mxGeometry x="473" y="510" width="112" height="70" as="geometry" />
        </mxCell>
        <mxCell id="SUhtx1BIKT0PeIiV_Kec-158" style="edgeStyle=none;rounded=0;html=1;dashed=1;labelBackgroundColor=none;startFill=0;endArrow=open;endFill=0;endSize=10;fontFamily=Verdana;fontSize=10;exitX=1.003;exitY=0.363;exitPerimeter=0;" edge="1" parent="SUhtx1BIKT0PeIiV_Kec-177" source="SUhtx1BIKT0PeIiV_Kec-159" target="SUhtx1BIKT0PeIiV_Kec-141">
          <mxGeometry relative="1" as="geometry" />
        </mxCell>
        <mxCell id="SUhtx1BIKT0PeIiV_Kec-159" value="" style="shape=folder;fontStyle=1;spacingTop=10;tabWidth=123;tabHeight=24;tabPosition=left;html=1;rounded=0;shadow=0;comic=0;labelBackgroundColor=none;strokeWidth=1;fontFamily=Verdana;fontSize=10;align=center;" vertex="1" parent="SUhtx1BIKT0PeIiV_Kec-177">
          <mxGeometry x="227" y="660" width="332" height="130" as="geometry" />
        </mxCell>
        <mxCell id="SUhtx1BIKT0PeIiV_Kec-151" style="edgeStyle=none;rounded=0;html=1;dashed=1;labelBackgroundColor=none;startFill=0;endArrow=open;endFill=0;endSize=10;fontFamily=Verdana;fontSize=10;entryX=1.013;entryY=0.444;entryPerimeter=0;" edge="1" parent="SUhtx1BIKT0PeIiV_Kec-177" source="SUhtx1BIKT0PeIiV_Kec-152" target="SUhtx1BIKT0PeIiV_Kec-153">
          <mxGeometry relative="1" as="geometry" />
        </mxCell>
        <mxCell id="SUhtx1BIKT0PeIiV_Kec-160" value="" style="triangle;whiteSpace=wrap;html=1;rounded=0;shadow=0;comic=0;labelBackgroundColor=none;strokeWidth=1;fontFamily=Verdana;fontSize=10;align=center;rotation=-90;" vertex="1" parent="SUhtx1BIKT0PeIiV_Kec-177">
          <mxGeometry x="323" y="662" width="15" height="20" as="geometry" />
        </mxCell>
        <mxCell id="SUhtx1BIKT0PeIiV_Kec-161" value="package" style="shape=folder;fontStyle=1;spacingTop=10;tabWidth=50;tabHeight=17;tabPosition=left;html=1;rounded=0;shadow=0;comic=0;labelBackgroundColor=none;strokeWidth=1;fontFamily=Verdana;fontSize=10;align=center;" vertex="1" parent="SUhtx1BIKT0PeIiV_Kec-177">
          <mxGeometry x="245" y="700" width="112" height="70" as="geometry" />
        </mxCell>
        <mxCell id="SUhtx1BIKT0PeIiV_Kec-162" value="package" style="shape=folder;fontStyle=1;spacingTop=10;tabWidth=50;tabHeight=17;tabPosition=left;html=1;rounded=0;shadow=0;comic=0;labelBackgroundColor=none;strokeWidth=1;fontFamily=Verdana;fontSize=10;align=center;" vertex="1" parent="SUhtx1BIKT0PeIiV_Kec-177">
          <mxGeometry x="414" y="700" width="112" height="70" as="geometry" />
        </mxCell>
        <mxCell id="SUhtx1BIKT0PeIiV_Kec-163" value="" style="triangle;whiteSpace=wrap;html=1;rounded=0;shadow=0;comic=0;labelBackgroundColor=none;strokeColor=#000000;strokeWidth=1;fillColor=#ffffff;fontFamily=Verdana;fontSize=10;fontColor=#000000;align=center;rotation=-90;" vertex="1" parent="SUhtx1BIKT0PeIiV_Kec-177">
          <mxGeometry x="212" y="362" width="15" height="20" as="geometry" />
        </mxCell>
        <mxCell id="SUhtx1BIKT0PeIiV_Kec-164" value="" style="group" vertex="1" connectable="0" parent="SUhtx1BIKT0PeIiV_Kec-177">
          <mxGeometry x="250" y="840.0694795496324" width="130" height="70" as="geometry" />
        </mxCell>
        <mxCell id="SUhtx1BIKT0PeIiV_Kec-165" value="package" style="shape=folder;fontStyle=1;spacingTop=10;tabWidth=50;tabHeight=17;tabPosition=left;html=1;rounded=0;shadow=0;comic=0;labelBackgroundColor=none;strokeWidth=1;fontFamily=Verdana;fontSize=10;align=center;" vertex="1" parent="SUhtx1BIKT0PeIiV_Kec-164">
          <mxGeometry width="130" height="70" as="geometry" />
        </mxCell>
        <mxCell id="SUhtx1BIKT0PeIiV_Kec-166" value="" style="triangle;whiteSpace=wrap;html=1;rounded=0;shadow=0;comic=0;labelBackgroundColor=none;strokeWidth=1;fontFamily=Verdana;fontSize=10;align=center;rotation=-90;" vertex="1" parent="SUhtx1BIKT0PeIiV_Kec-164">
          <mxGeometry x="100" y="25" width="15" height="20" as="geometry" />
        </mxCell>
        <mxCell id="SUhtx1BIKT0PeIiV_Kec-167" value="" style="group" vertex="1" connectable="0" parent="SUhtx1BIKT0PeIiV_Kec-177">
          <mxGeometry x="417" y="840.0694795496324" width="130" height="70" as="geometry" />
        </mxCell>
        <mxCell id="SUhtx1BIKT0PeIiV_Kec-168" value="package" style="shape=folder;fontStyle=1;spacingTop=10;tabWidth=50;tabHeight=17;tabPosition=left;html=1;rounded=0;shadow=0;comic=0;labelBackgroundColor=none;strokeWidth=1;fontFamily=Verdana;fontSize=10;align=center;" vertex="1" parent="SUhtx1BIKT0PeIiV_Kec-167">
          <mxGeometry width="130" height="70" as="geometry" />
        </mxCell>
        <mxCell id="SUhtx1BIKT0PeIiV_Kec-169" value="" style="triangle;whiteSpace=wrap;html=1;rounded=0;shadow=0;comic=0;labelBackgroundColor=none;strokeWidth=1;fontFamily=Verdana;fontSize=10;align=center;rotation=-90;" vertex="1" parent="SUhtx1BIKT0PeIiV_Kec-167">
          <mxGeometry x="100" y="25" width="15" height="20" as="geometry" />
        </mxCell>
        <mxCell id="SUhtx1BIKT0PeIiV_Kec-149" style="edgeStyle=elbowEdgeStyle;rounded=0;html=1;entryX=0.559;entryY=0.251;entryPerimeter=0;dashed=1;labelBackgroundColor=none;startFill=0;endArrow=open;endFill=0;endSize=10;fontFamily=Verdana;fontSize=10;" edge="1" parent="SUhtx1BIKT0PeIiV_Kec-177" source="SUhtx1BIKT0PeIiV_Kec-152" target="SUhtx1BIKT0PeIiV_Kec-154">
          <mxGeometry relative="1" as="geometry" />
        </mxCell>
        <mxCell id="SUhtx1BIKT0PeIiV_Kec-170" style="rounded=0;html=1;dashed=1;labelBackgroundColor=none;startFill=0;endArrow=open;endFill=0;endSize=10;fontFamily=Verdana;fontSize=10;entryX=0.592;entryY=0.2;entryPerimeter=0;edgeStyle=elbowEdgeStyle;" edge="1" parent="SUhtx1BIKT0PeIiV_Kec-177" source="SUhtx1BIKT0PeIiV_Kec-124" target="SUhtx1BIKT0PeIiV_Kec-130">
          <mxGeometry relative="1" as="geometry" />
        </mxCell>
        <mxCell id="SUhtx1BIKT0PeIiV_Kec-171" style="rounded=0;html=1;dashed=1;labelBackgroundColor=none;startFill=0;endArrow=open;endFill=0;endSize=10;fontFamily=Verdana;fontSize=10;entryX=0.592;entryY=0.2;entryPerimeter=0;edgeStyle=elbowEdgeStyle;" edge="1" parent="SUhtx1BIKT0PeIiV_Kec-177">
          <mxGeometry relative="1" as="geometry">
            <mxPoint x="516.8275862068967" y="130" as="sourcePoint" />
            <mxPoint x="516.8275862068967" y="206.34482758620697" as="targetPoint" />
          </mxGeometry>
        </mxCell>
        <mxCell id="SUhtx1BIKT0PeIiV_Kec-150" style="edgeStyle=none;rounded=0;html=1;dashed=1;labelBackgroundColor=none;startFill=0;endArrow=open;endFill=0;endSize=10;fontFamily=Verdana;fontSize=10;entryX=-0.003;entryY=0.411;entryPerimeter=0;" edge="1" parent="SUhtx1BIKT0PeIiV_Kec-177" source="SUhtx1BIKT0PeIiV_Kec-152" target="SUhtx1BIKT0PeIiV_Kec-155">
          <mxGeometry relative="1" as="geometry" />
        </mxCell>
        <mxCell id="SUhtx1BIKT0PeIiV_Kec-172" style="rounded=0;html=1;entryX=0.452;entryY=0.1;entryPerimeter=0;dashed=1;labelBackgroundColor=none;startFill=0;endArrow=open;endFill=0;endSize=10;fontFamily=Verdana;fontSize=10;" edge="1" parent="SUhtx1BIKT0PeIiV_Kec-177" source="SUhtx1BIKT0PeIiV_Kec-130" target="SUhtx1BIKT0PeIiV_Kec-148">
          <mxGeometry relative="1" as="geometry" />
        </mxCell>
        <mxCell id="SUhtx1BIKT0PeIiV_Kec-146" style="edgeStyle=none;rounded=0;html=1;entryX=0.43;entryY=0.173;entryPerimeter=0;dashed=1;labelBackgroundColor=none;startFill=0;endArrow=open;endFill=0;endSize=10;fontFamily=Verdana;fontSize=10;" edge="1" parent="SUhtx1BIKT0PeIiV_Kec-177" source="SUhtx1BIKT0PeIiV_Kec-148" target="SUhtx1BIKT0PeIiV_Kec-159">
          <mxGeometry relative="1" as="geometry" />
        </mxCell>
        <mxCell id="SUhtx1BIKT0PeIiV_Kec-173" style="edgeStyle=none;rounded=0;html=1;entryX=0.69;entryY=0.102;entryPerimeter=0;dashed=1;labelBackgroundColor=none;startFill=0;endArrow=open;endFill=0;endSize=10;fontFamily=Verdana;fontSize=10;" edge="1" parent="SUhtx1BIKT0PeIiV_Kec-177" source="SUhtx1BIKT0PeIiV_Kec-135" target="SUhtx1BIKT0PeIiV_Kec-148">
          <mxGeometry relative="1" as="geometry" />
        </mxCell>
        <mxCell id="SUhtx1BIKT0PeIiV_Kec-156" style="edgeStyle=elbowEdgeStyle;rounded=0;html=1;entryX=0.628;entryY=0.26;entryPerimeter=0;dashed=1;labelBackgroundColor=none;startFill=0;endArrow=open;endFill=0;endSize=10;fontFamily=Verdana;fontSize=10;" edge="1" parent="SUhtx1BIKT0PeIiV_Kec-177" source="SUhtx1BIKT0PeIiV_Kec-159" target="SUhtx1BIKT0PeIiV_Kec-165">
          <mxGeometry relative="1" as="geometry" />
        </mxCell>
        <mxCell id="SUhtx1BIKT0PeIiV_Kec-174" style="edgeStyle=none;rounded=0;html=1;dashed=1;labelBackgroundColor=none;startFill=0;endArrow=open;endFill=0;endSize=10;fontFamily=Verdana;fontSize=10;exitX=1.002;exitY=0.668;exitPerimeter=0;" edge="1" parent="SUhtx1BIKT0PeIiV_Kec-177" source="SUhtx1BIKT0PeIiV_Kec-135" target="SUhtx1BIKT0PeIiV_Kec-141">
          <mxGeometry relative="1" as="geometry" />
        </mxCell>
        <mxCell id="SUhtx1BIKT0PeIiV_Kec-157" style="edgeStyle=elbowEdgeStyle;rounded=0;html=1;entryX=0.643;entryY=0.246;entryPerimeter=0;dashed=1;labelBackgroundColor=none;startFill=0;endArrow=open;endFill=0;endSize=10;fontFamily=Verdana;fontSize=10;" edge="1" parent="SUhtx1BIKT0PeIiV_Kec-177" source="SUhtx1BIKT0PeIiV_Kec-159" target="SUhtx1BIKT0PeIiV_Kec-168">
          <mxGeometry relative="1" as="geometry" />
        </mxCell>
        <mxCell id="SUhtx1BIKT0PeIiV_Kec-175" style="edgeStyle=orthogonalEdgeStyle;rounded=0;html=1;dashed=1;labelBackgroundColor=none;startFill=0;endArrow=open;endFill=0;endSize=10;fontFamily=Verdana;fontSize=10;" edge="1" parent="SUhtx1BIKT0PeIiV_Kec-177" source="SUhtx1BIKT0PeIiV_Kec-130" target="SUhtx1BIKT0PeIiV_Kec-141">
          <mxGeometry relative="1" as="geometry">
            <Array as="points">
              <mxPoint x="339" y="245" />
              <mxPoint x="339" y="350" />
            </Array>
          </mxGeometry>
        </mxCell>
        <mxCell id="SUhtx1BIKT0PeIiV_Kec-176" value="&amp;lt;&amp;lt;model&amp;gt;&amp;gt;" style="text;html=1;align=left;verticalAlign=top;spacingTop=-4;fontSize=10;fontFamily=Verdana" vertex="1" parent="SUhtx1BIKT0PeIiV_Kec-177">
          <mxGeometry x="1" width="130" height="20" as="geometry" />
        </mxCell>
      </root>
    </mxGraphModel>
  </diagram>
</mxfile>
